<svg width="20" height="20" viewBox="0 0 20 20" fill="none" xmlns="http://www.w3.org/2000/svg">
<path d="M1.66634 4.39134L2.73301 3.33301L16.6663 17.2663L15.608 18.333L13.0413 15.7663C12.083 16.083 11.0663 16.2497 9.99967 16.2497C5.83301 16.2497 2.27467 13.658 0.833008 9.99967C1.40801 8.53301 2.32467 7.24134 3.49134 6.21634L1.66634 4.39134ZM9.99967 7.49967C10.6627 7.49967 11.2986 7.76307 11.7674 8.23191C12.2363 8.70075 12.4997 9.33663 12.4997 9.99967C12.5001 10.2835 12.4522 10.5653 12.358 10.833L9.16634 7.64134C9.43406 7.54716 9.71587 7.49925 9.99967 7.49967ZM9.99967 3.74967C14.1663 3.74967 17.7247 6.34134 19.1663 9.99967C18.4858 11.7271 17.3301 13.2266 15.833 14.3247L14.6497 13.133C15.8021 12.3359 16.7316 11.2573 17.3497 9.99967C16.6761 8.62456 15.6301 7.46603 14.3308 6.6558C13.0315 5.84557 11.5309 5.41614 9.99967 5.41634C9.09134 5.41634 8.19967 5.56634 7.36634 5.83301L6.08301 4.55801C7.28301 4.04134 8.60801 3.74967 9.99967 3.74967ZM2.64967 9.99967C3.3233 11.3748 4.36922 12.5333 5.66854 13.3435C6.96785 14.1538 8.46843 14.5832 9.99967 14.583C10.5747 14.583 11.1413 14.5247 11.6663 14.408L9.76634 12.4997C9.18648 12.4375 8.64536 12.1787 8.23299 11.7664C7.82061 11.354 7.56183 10.8129 7.49967 10.233L4.66634 7.39134C3.84134 8.09967 3.14967 8.98301 2.64967 9.99967Z" fill="#A3AED0"/>
</svg>
